<svg xmlns="http://www.w3.org/2000/svg" width="19" height="16" viewBox="0 0 19 16"><g><g><path fill="#fff" d="M18.348 6.876v.76c0 .205-.166.369-.37.369H15.31v2.67a.368.368 0 0 1-.369.367h-.76a.367.367 0 0 1-.369-.367v-2.67h-2.667a.37.37 0 0 1-.372-.37v-.76c0-.202.168-.368.372-.368h2.667V3.839c0-.203.164-.37.37-.37h.76a.37.37 0 0 1 .368.37v2.668h2.668a.37.37 0 0 1 .37.369zm-7.54 5.32c0 1.582-1.203 2.953-3.064 3.492a6.851 6.851 0 0 1-1.918.26c-.754 0-1.48-.086-2.154-.258-1.309-.33-2.278-.955-2.727-1.761a2.236 2.236 0 0 1-.293-1.108c0-.394.094-.797.282-1.193.714-1.53 2.605-2.557 4.697-2.557h.06a1.853 1.853 0 0 1-.252-.935c0-.162.02-.327.065-.495-2.196-.05-3.838-1.658-3.838-3.779C1.666 2.366 2.861.91 4.572.32A4.735 4.735 0 0 1 6.121.052h4.693c.16 0 .301.103.352.255a.366.366 0 0 1-.135.413l-1.05.761a.37.37 0 0 1-.217.069h-.377c.486.582.771 1.41.771 2.343 0 1.028-.521 2-1.467 2.743-.732.568-.76.724-.76 1.05.008.18.52.762 1.08 1.16 1.31.924 1.797 1.835 1.797 3.35zM5.816 14.46c2.022 0 3.047-.698 3.047-2.072a1.66 1.66 0 0 0-.049-.399c-.136-.535-.625-.867-1.363-1.37-.103-.071-.207-.144-.318-.218-.32-.1-.658-.148-1.008-.154h-.043c-1.598 0-2.998.969-2.998 2.072 0 1.201 1.2 2.14 2.732 2.14zM4.088 3.806c.183 1.388 1.197 2.59 2.213 2.62h.017c.381 0 .705-.15.955-.435.391-.447.565-1.18.463-1.959-.183-1.389-1.176-2.547-2.213-2.576h-.04c-.37 0-.696.15-.946.433-.387.442-.55 1.14-.45 1.917z"/></g></g></svg>