<svg xmlns="http://www.w3.org/2000/svg" width="18" height="15" viewBox="0 0 18 15"><g><g><path fill="#fff" d="M17.748 2.292a7.132 7.132 0 0 1-2.06.564A3.594 3.594 0 0 0 17.265.87a7.205 7.205 0 0 1-2.28.873A3.59 3.59 0 0 0 8.87 5.016a10.18 10.18 0 0 1-7.4-3.751A3.596 3.596 0 0 0 2.58 6.06a3.585 3.585 0 0 1-1.627-.452v.047a3.592 3.592 0 0 0 2.881 3.52 3.614 3.614 0 0 1-1.621.06 3.59 3.59 0 0 0 3.351 2.494A7.199 7.199 0 0 1 .25 13.216a10.177 10.177 0 0 0 5.504 1.613c6.603 0 10.215-5.47 10.215-10.215 0-.154-.004-.31-.012-.465a7.298 7.298 0 0 0 1.791-1.857z"/></g></g></svg>