<svg xmlns="http://www.w3.org/2000/svg" width="19" height="18" viewBox="0 0 19 18"><g><g><path fill="#fff" d="M18.21 11.78v2.559a3.182 3.182 0 0 1-3.18 3.181H3.972A3.184 3.184 0 0 1 .789 14.34V11.78a3.184 3.184 0 0 1 3.184-3.183h11.056a3.182 3.182 0 0 1 3.182 3.183zM6.296 9.72H3.248v.869h1.027v5.107h.993V10.59h1.027zm2.904 1.566h-.88v3.35a1.208 1.208 0 0 1-.274.238.495.495 0 0 1-.246.092c-.082 0-.143-.024-.18-.073-.035-.045-.057-.119-.057-.224v-3.383h-.88v3.687c0 .264.052.46.156.59.103.133.256.198.459.198.166 0 .336-.045.514-.141.175-.092.343-.228.507-.406v.482H9.2zm3.197 1.053c0-.362-.072-.637-.218-.825-.149-.187-.362-.28-.64-.28a.866.866 0 0 0-.407.105c-.133.068-.26.172-.377.304V9.72H9.86v5.976h.893v-.34c.113.137.24.237.377.301.133.064.287.096.46.096.26 0 .462-.082.598-.25.14-.166.207-.406.207-.717zm3.057.135c0-.42-.107-.739-.324-.962-.217-.224-.527-.335-.932-.335-.394 0-.713.12-.963.361-.25.24-.375.555-.375.936v1.98c0 .426.116.76.34.998.227.244.537.363.934.363.44 0 .77-.111.988-.34.223-.23.332-.57.332-1.021v-.227h-.906v.202c0 .26-.03.425-.088.502-.059.076-.16.115-.307.115-.138 0-.24-.045-.299-.135-.058-.09-.084-.25-.084-.482v-.83h1.684zm-.998-.403c.06.076.092.21.092.395v.445h-.778v-.445c0-.186.028-.319.09-.395.06-.082.162-.123.301-.123.135 0 .234.04.295.123zm-3.059-.023c.063.078.092.19.092.34v2.277c0 .14-.025.24-.076.305-.05.062-.129.091-.236.091a.514.514 0 0 1-.215-.047.736.736 0 0 1-.207-.156V12.11a.627.627 0 0 1 .182-.135.422.422 0 0 1 .185-.043c.12 0 .21.04.275.116zM5.42 4.456L4.09.479h1.125l.724 2.633h.073L6.702.48h1.136L6.537 4.333v2.732H5.42zm2.889 2.365c-.26-.246-.391-.572-.391-.986V3.317c0-.377.133-.676.4-.898.268-.22.627-.334 1.076-.334.413 0 .749.117 1.012.353.26.235.393.54.393.909v2.507c0 .416-.13.74-.385.979-.26.236-.613.353-1.064.353-.432 0-.782-.12-1.041-.365zm.63-.893a.43.43 0 0 0 .106.31c.07.071.17.107.303.107a.45.45 0 0 0 .32-.11.398.398 0 0 0 .12-.307V3.28a.319.319 0 0 0-.122-.256.484.484 0 0 0-.318-.097.439.439 0 0 0-.297.097.335.335 0 0 0-.112.256zm2.838.989c-.115-.145-.174-.36-.174-.65v-4.06h.99V5.93c0 .116.024.2.065.25.04.053.108.079.201.079a.578.578 0 0 0 .278-.104c.111-.066.213-.154.304-.26V2.208h.995v4.857h-.995v-.537c-.18.198-.37.348-.57.453a1.253 1.253 0 0 1-.574.155c-.23 0-.403-.074-.52-.22z"/></g></g></svg>