<svg xmlns="http://www.w3.org/2000/svg" width="34" height="49" viewBox="0 0 34 49"><g><g><path fill="#fff" d="M33.553 21.686a9.975 9.975 0 0 1-1.362 3.649 2.316 2.316 0 0 1 1.211 1.904l.23 4.746.03.586v.013l.002.025v.105c0 .468-.037.942-.111 1.42-.319 2.013-1.301 3.998-2.908 5.603-1.606 1.607-3.59 2.589-5.608 2.906-.477.076-.95.11-1.418.11l-.05.005-.682-.035-4.391-.213v4.237a1.524 1.524 0 1 1-3.049 0V42.51l-4.388.213-.682.035-.053-.004c-.467 0-.94-.035-1.416-.11-2.017-.318-4.004-1.3-5.61-2.907-1.605-1.605-2.587-3.59-2.905-5.603a9.248 9.248 0 0 1-.112-1.42v-.105l.002-.025v-.013l.03-.586.23-4.746a2.317 2.317 0 0 1 1.21-1.904 9.973 9.973 0 0 1-1.36-3.649 9.248 9.248 0 0 1-.112-1.42v-.104l.002-.025v-.013l.03-.586.23-4.746c.086-1.207.986-2.109 2.191-2.194l4.754-.231.59-.03h.133c.125 0 .25.009.375.015a11.01 11.01 0 0 1-.053-1.021c0-2.272.71-4.37 1.906-6.018.286-.39.596-.753.926-1.083.026-.025.051-.048.074-.073l.02-.018.01-.008.433-.394 3.52-3.193c.914-.792 2.187-.793 3.101 0l3.524 3.197.44.397c.042.04.072.072.093.092.332.332.643.694.924 1.08h-.002c1.201 1.652 1.91 3.75 1.91 6.02 0 .346-.021.685-.055 1.022.127-.006.252-.015.377-.015h.131l.592.03 4.752.231c1.207.085 2.107.987 2.193 2.194l.23 4.746.03.586v.013l.002.025v.104c0 .468-.037.943-.111 1.42zM11.074 11.332c0 .521.053 1.026.145 1.512a10.386 10.386 0 0 1 4.013 2.51c.704.702 1.28 1.48 1.74 2.298a10.554 10.554 0 0 1 1.739-2.298 10.405 10.405 0 0 1 4.014-2.51c.093-.487.146-.992.146-1.513 0-1.741-.545-3.32-1.422-4.526a6.954 6.954 0 0 0-.664-.779c-.021-.02-.033-.031-.02-.02l-.423-.384-3.37-3.055-3.363 3.05-.416.38a6.403 6.403 0 0 0-.697.81c-.877 1.204-1.424 2.784-1.422 4.525zm-8.252 8.934c0 .34.026.678.08 1.023.2 1.264.768 2.549 1.703 3.666l2.883-.14.59-.03h.133c.47-.001.943.035 1.416.11 1.902.3 3.771 1.199 5.326 2.647.094.088.19.169.28.26.076.075.144.152.214.228v-7.486a7.789 7.789 0 0 0-2.01-3.393c-1.23-1.231-2.732-1.962-4.205-2.194l-.056-.007a6.743 6.743 0 0 0-.965-.074h-.035l-.565.027-4.54.223-.221 4.534-.028.563zm5.362-5.39h-.008zm7.263 25.09v-6.983a7.703 7.703 0 0 0-1.521-2.846 7.88 7.88 0 0 0-3.36-2.38 7.156 7.156 0 0 0-1.334-.353 7.051 7.051 0 0 0-1.021-.081c-.03 0-.045.002-.027 0l-.221.012-.352.016-4.033.197-.508.025-.22 4.535-.028.563v.043c0 .34.026.677.08 1.022.233 1.472.963 2.975 2.194 4.206 1.23 1.232 2.732 1.962 4.203 2.194.344.052.691.079 1.031.079l.016-.001h.037l.55-.027zm15.676-7.295l-.027-.563-.221-4.535-.51-.025-4.033-.197-.35-.016-.22-.012c.017.002.002 0-.028 0a7.01 7.01 0 0 0-1.021.081c-.446.07-.893.192-1.334.353a7.88 7.88 0 0 0-2.871 1.842 8.42 8.42 0 0 0-.49.538 7.732 7.732 0 0 0-1.522 2.846v6.983l4.514.221.552.027h.038a6.781 6.781 0 0 0 1.045-.078c1.472-.232 2.972-.962 4.203-2.194 1.232-1.231 1.962-2.734 2.195-4.206.055-.345.08-.682.08-1.022zm0-12.448l-.027-.563-.221-4.534-4.543-.223-.563-.027h-.035c-.318 0-.64.026-.965.074l-.056.007c-1.475.232-2.975.963-4.205 2.194a7.793 7.793 0 0 0-2.012 3.393v7.486c.07-.076.14-.153.215-.227.092-.092.187-.173.281-.261 1.553-1.448 3.422-2.347 5.326-2.647.471-.075.946-.111 1.416-.11h.131l.592.03 2.88.14c.936-1.117 1.507-2.402 1.706-3.666.055-.345.08-.684.08-1.023zm-5.361-5.347h0z"/></g></g></svg>